<svg width="16" height="20" viewBox="0 0 16 20" fill="none" xmlns="http://www.w3.org/2000/svg">
<path fill-rule="evenodd" clip-rule="evenodd" d="M10.64 8.66L15.55 9.2C15.8065 9.22577 16.0013 9.44226 16 9.7V10.3C16.0013 10.5577 15.8065 10.7742 15.55 10.8L10.64 11.34C10.4092 11.363 10.1936 11.4655 10.03 11.63L9.65001 12.03C9.48918 12.195 9.39028 12.4105 9.37001 12.64L8.79001 19.54C8.76911 19.8004 8.55125 20.0008 8.29001 20H7.71001C7.44876 20.0008 7.2309 19.8004 7.21001 19.54L6.63001 12.64C6.60974 12.4105 6.51083 12.195 6.35001 12.03L5.97001 11.63C5.80646 11.4655 5.59082 11.363 5.36001 11.34L0.450006 10.8C0.193556 10.7742 -0.00128524 10.5577 6.38427e-06 10.3V9.7C-0.00128524 9.44226 0.193556 9.22577 0.450006 9.2L5.36001 8.66C5.59082 8.63701 5.80646 8.53449 5.97001 8.37L6.35001 7.97C6.51083 7.805 6.60974 7.58952 6.63001 7.36L7.21001 0.460003C7.2309 0.199592 7.44876 -0.000834615 7.71001 2.61334e-06H8.29001C8.55125 -0.000834615 8.76911 0.199592 8.79001 0.460003L9.37001 7.36C9.39028 7.58952 9.48918 7.805 9.65001 7.97L10.03 8.37C10.1936 8.53449 10.4092 8.63701 10.64 8.66ZM12.27 6.37L11.63 5.73C11.5257 5.63524 11.4663 5.50089 11.4663 5.36C11.4663 5.21911 11.5257 5.08476 11.63 4.99L13.19 3.7C13.3836 3.52684 13.6764 3.52684 13.87 3.7L14.28 4.11C14.4532 4.3036 14.4532 4.59641 14.28 4.79L13 6.34C12.9097 6.44497 12.7799 6.50779 12.6415 6.51347C12.5032 6.51916 12.3686 6.46721 12.27 6.37ZM3.00001 13.66L1.70001 15.19C1.52685 15.3836 1.52685 15.6764 1.70001 15.87L2.11001 16.28C2.3036 16.4532 2.59641 16.4532 2.79001 16.28L4.34001 15C4.44426 14.9052 4.5037 14.7709 4.5037 14.63C4.5037 14.4891 4.44426 14.3548 4.34001 14.26L3.70001 13.62C3.49485 13.4401 3.18334 13.4579 3.00001 13.66ZM13.19 16.29L11.66 15C11.4579 14.8167 11.4401 14.5052 11.62 14.3L12.26 13.66C12.3548 13.5557 12.4891 13.4963 12.63 13.4963C12.7709 13.4963 12.9052 13.5557 13 13.66L14.28 15.2C14.4532 15.3936 14.4532 15.6864 14.28 15.88L13.87 16.29C13.6764 16.4632 13.3836 16.4632 13.19 16.29ZM4.34001 5L2.81001 3.7C2.61641 3.52684 2.3236 3.52684 2.13001 3.7L1.72001 4.11C1.54685 4.3036 1.54685 4.59641 1.72001 4.79L3.00001 6.34C3.09477 6.44426 3.22912 6.5037 3.37001 6.5037C3.51089 6.5037 3.64524 6.44426 3.74001 6.34L4.38001 5.7C4.55991 5.49484 4.54211 5.18333 4.34001 5Z" fill="#2D9CDB"/>
</svg>
